<svg width="150" height="67" viewBox="0 0 150 67" fill="none" xmlns="http://www.w3.org/2000/svg">
<path d="M51.9452 28.8821V24.1393C51.809 24.1393 51.6898 24.1393 51.5876 24.1393C49.9872 24.1393 48.6422 24.5813 47.5526 25.4652C46.4629 26.3152 45.9181 27.6922 45.9181 29.5961C45.9181 31.466 46.1905 32.843 46.7353 33.727C47.2802 34.5769 48.0123 35.0019 48.9317 35.0019C49.851 35.0019 50.5831 34.3559 51.128 33.064C51.6728 31.772 51.9452 30.3781 51.9452 28.8821ZM62.5181 34.6449C63.812 34.6449 64.6463 32.945 65.0209 29.5451L65.9402 29.6471C65.2933 34.9169 62.9267 37.5518 58.8406 37.5518C57.138 37.5518 55.7589 36.9909 54.7033 35.8689C53.6477 34.7129 53.0519 33.336 52.9156 31.738H52.6092C52.1325 33.574 51.3323 35.0019 50.2086 36.0219C49.0849 37.0419 47.2972 37.5518 44.8455 37.5518C42.4279 37.5518 40.3848 37.0249 38.7163 35.9709C37.0818 34.8829 36.2646 33.166 36.2646 30.8201C36.2646 25.7542 41.4915 23.2213 51.9452 23.2213V21.5384C51.9452 18.2405 51.5366 16.0645 50.7193 15.0106C50.3448 14.5346 49.7829 14.1096 49.0338 13.7356C48.3187 13.3616 47.4504 13.1746 46.4289 13.1746C44.488 13.1746 42.7684 13.6166 41.2701 14.5006C39.8059 15.3845 39.0738 16.3535 39.0738 17.4075C39.0738 17.7135 39.227 17.8665 39.5335 17.8665C39.7378 17.8665 39.874 17.8155 39.9421 17.7135C40.0102 17.5775 40.0613 17.4585 40.0954 17.3565C40.1294 17.2205 40.1635 17.1185 40.1975 17.0505C40.2316 16.9485 40.2997 16.7955 40.4018 16.5915C40.538 16.3875 40.8445 16.1155 41.3212 15.7755C41.7979 15.4355 42.4449 15.2656 43.2621 15.2656C44.0793 15.2656 44.7774 15.6395 45.3563 16.3875C45.9692 17.1015 46.2757 17.9855 46.2757 19.0394C46.2757 20.0934 45.8841 20.9944 45.1009 21.7423C44.3177 22.4563 43.3302 22.8133 42.1384 22.8133C40.9466 22.8133 39.9251 22.4053 39.0738 21.5894C38.2566 20.7394 37.848 19.7194 37.848 18.5294C37.848 16.5575 38.7503 15.0106 40.555 13.8886C42.3598 12.7326 44.9477 12.1546 48.3187 12.1546C51.7239 12.1546 54.4309 12.5966 56.44 13.4806C58.449 14.3646 59.811 15.6225 60.5261 17.2545C61.2412 18.8524 61.5987 21.0624 61.5987 23.8843V32.554C61.5987 33.948 61.9052 34.6449 62.5181 34.6449Z" fill="url(#paint0_linear_178_1039)"/>
<path d="M77.51 33.931V36.5829H64.6897V35.7669H67.8564V2.15897H64.23V1.34299H67.2946C71.0062 1.34299 74.4113 1.02 77.51 0.374023V16.6425H77.7653C78.4123 15.0106 79.2976 13.8546 80.4213 13.1746C81.5791 12.4946 83.0773 12.1546 84.9161 12.1546C88.1169 12.1546 90.4494 13.3446 91.9136 15.7245C93.4119 18.0705 94.161 21.0964 94.161 24.8022C94.161 28.5081 93.3097 31.568 91.6072 33.982C89.9387 36.3619 87.504 37.5518 84.3032 37.5518C81.1364 37.5518 78.9571 36.3449 77.7653 33.931H77.51ZM77.3056 24.8532V26.2302C77.3056 29.2221 77.6972 31.551 78.4804 33.217C79.2636 34.8489 80.166 35.6649 81.1875 35.6649C82.9582 35.6649 83.8435 32.061 83.8435 24.8532C83.8435 21.2494 83.6562 18.6144 83.2816 16.9485C82.9411 15.2826 82.2431 14.4496 81.1875 14.4496C79.9616 14.4496 79.0082 15.5375 78.3272 17.7135C77.6462 19.8554 77.3056 22.2353 77.3056 24.8532Z" fill="url(#paint1_linear_178_1039)"/>
<path d="M107.651 33.931V36.5829H94.831V35.7669H97.9978V2.15897H94.3713V1.34299H97.4359C101.148 1.34299 104.553 1.02 107.651 0.374023V16.6425H107.907C108.554 15.0106 109.439 13.8546 110.563 13.1746C111.72 12.4946 113.219 12.1546 115.057 12.1546C118.258 12.1546 120.591 13.3446 122.055 15.7245C123.553 18.0705 124.302 21.0964 124.302 24.8022C124.302 28.5081 123.451 31.568 121.749 33.982C120.08 36.3619 117.645 37.5518 114.445 37.5518C111.278 37.5518 109.098 36.3449 107.907 33.931H107.651ZM107.447 24.8532V26.2302C107.447 29.2221 107.839 31.551 108.622 33.217C109.405 34.8489 110.307 35.6649 111.329 35.6649C113.099 35.6649 113.985 32.061 113.985 24.8532C113.985 21.2494 113.798 18.6144 113.423 16.9485C113.082 15.2826 112.384 14.4496 111.329 14.4496C110.103 14.4496 109.15 15.5375 108.469 17.7135C107.788 19.8554 107.447 22.2353 107.447 24.8532Z" fill="url(#paint2_linear_178_1039)"/>
<path d="M144.024 12.1546C145.999 12.1546 147.48 12.8856 148.468 14.3476C149.489 15.7755 150 17.5775 150 19.7534C150 24.8872 148.263 28.9331 144.79 31.891C144.143 32.435 143.105 33.2 141.674 34.186C140.278 35.1379 139.104 35.9539 138.15 36.6339C137.231 37.3139 136.38 38.2148 135.596 39.3368C134.813 40.4588 134.422 41.6147 134.422 42.8047C134.422 44.8106 135.239 46.2726 136.873 47.1905C137.078 47.3265 137.265 47.3945 137.435 47.3945C137.742 47.3945 137.895 47.2415 137.895 46.9355C137.895 46.7655 137.759 46.5956 137.486 46.4256C136.431 45.7456 135.903 44.8786 135.903 43.8246C135.903 42.7707 136.226 41.8867 136.873 41.1727C137.52 40.4928 138.372 40.1528 139.427 40.1528C140.517 40.1528 141.453 40.5267 142.236 41.2747C143.02 42.0227 143.411 43.0257 143.411 44.2836C143.411 45.5416 142.985 46.5616 142.134 47.3435C141.283 48.1595 140.159 48.5675 138.763 48.5675C137.367 48.5675 136.141 48.0405 135.086 46.9865C134.03 45.9666 133.502 44.6406 133.502 43.0087C133.502 41.4107 133.877 40.0678 134.626 38.9798C135.409 37.8918 136.482 36.8039 137.844 35.7159C133.655 34.3559 130.829 32.044 129.365 28.7801C127.935 25.4822 127.22 20.8074 127.22 14.7556V13.9396H123.542V13.1236H126.607C130.591 13.1236 134.132 12.8006 137.231 12.1546C137.163 13.7186 137.129 15.4695 137.129 17.4075C137.129 19.3114 137.316 21.2664 137.69 23.2723C138.099 25.2442 138.61 26.7742 139.223 27.8622C140.415 30.0041 141.606 31.075 142.798 31.075C144.705 31.075 146.408 29.4091 147.906 26.0772C148.689 24.3093 149.081 22.1673 149.081 19.6514C149.081 17.1355 148.4 15.2996 147.038 14.1436C146.459 13.5656 145.948 13.2766 145.505 13.2766C145.097 13.2766 144.892 13.4296 144.892 13.7356C144.892 13.9396 145.046 14.1096 145.352 14.2456C146.51 14.7896 147.089 15.6225 147.089 16.7445C147.089 17.8665 146.731 18.7674 146.016 19.4474C145.335 20.0934 144.467 20.4164 143.411 20.4164C142.355 20.4164 141.453 20.0424 140.704 19.2944C139.989 18.5124 139.631 17.5265 139.631 16.3365C139.631 15.1466 140.04 14.1606 140.857 13.3786C141.709 12.5626 142.764 12.1546 144.024 12.1546Z" fill="url(#paint3_linear_178_1039)"/>
<g filter="url(#filter0_d_178_1039)">
<path d="M1.73661 25.7202C1.73661 21.1927 3.35263 17.7007 6.58466 15.2443C9.81669 12.7878 13.7482 11.5596 18.3792 11.5596C19.8746 11.5596 21.3459 11.7041 22.7931 11.9931C21.5871 10.6445 20.9841 9.00688 20.9841 7.08027C20.9841 5.15367 21.6353 3.49197 22.9378 2.09518C24.2885 0.698394 25.9045 0 27.7858 0C29.7154 0 31.3073 0.553899 32.5615 1.6617C33.8157 2.76949 34.4428 4.19036 34.4428 5.92431C34.4428 7.65825 33.9363 9.07913 32.9233 10.1869C31.9103 11.2466 30.6319 11.7764 29.0883 11.7764C27.5929 11.7764 26.3386 11.3429 25.3256 10.4759C24.3608 9.56078 23.8784 8.40481 23.8784 7.00803C23.8784 5.61124 24.3608 4.50344 25.3256 3.68463C26.0492 3.34748 26.411 2.96215 26.411 2.52867C26.411 2.09518 26.1939 1.87844 25.7598 1.87844C25.4703 1.87844 25.1085 2.02293 24.6744 2.31192C23.0825 3.51605 22.2865 5.12959 22.2865 7.15252C22.2865 9.70527 23.7578 11.7282 26.7004 13.2213C32.248 15.6296 35.0217 19.7959 35.0217 25.7202C35.0217 30.2477 33.4057 33.7397 30.1737 36.1961C26.9416 38.6525 23.0101 39.8807 18.3792 39.8807C15.1954 39.8807 12.3493 39.3268 9.84081 38.219C6.7535 39.5195 5.20984 40.8681 5.20984 42.2649C5.20984 43.2282 5.59576 43.8784 6.36758 44.2156C7.13941 44.5046 8.46599 44.6491 10.3473 44.6491C12.2287 44.6491 15.2195 44.1674 19.3198 43.2041C23.4684 42.2408 26.1939 41.7592 27.4964 41.7592C30.2943 41.7592 32.5133 42.4816 34.1534 43.9266C35.7935 45.3716 36.6136 47.2741 36.6136 49.6342C36.6136 53.3429 35.0458 56.4977 31.9103 59.0986C28.7747 61.6995 25.0121 63 20.6223 63C15.4124 63 11.1674 60.953 7.88712 56.8589C5.5234 56.6663 3.61795 55.7752 2.17077 54.1858C0.723589 52.5963 0 50.6697 0 48.406C0 46.1904 0.723589 44.0952 2.17077 42.1204C3.66618 40.1456 5.74047 38.5803 8.39363 37.4243C3.95562 34.9197 1.73661 31.0183 1.73661 25.7202ZM16.7149 38.1468C17.1973 38.4358 17.7521 38.5803 18.3792 38.5803C19.0063 38.5803 19.5369 38.4358 19.9711 38.1468C20.4535 37.8096 20.8152 37.3039 21.0564 36.6296C21.3459 35.9071 21.563 35.2328 21.7077 34.6066C21.9006 33.9323 22.0212 32.9931 22.0695 31.789C22.1177 30.5849 22.1418 29.6216 22.1418 28.8991C22.1901 28.1766 22.2142 27.117 22.2142 25.7202C22.2142 24.3234 22.1901 23.2638 22.1418 22.5413C22.1418 21.8188 22.1177 20.8555 22.0695 19.6514C22.0212 18.4472 21.9006 17.5321 21.7077 16.906C21.563 16.2316 21.3459 15.5573 21.0564 14.883C20.8152 14.1605 20.4535 13.6548 19.9711 13.3658C19.5369 13.0287 19.0063 12.8601 18.3792 12.8601C17.7521 12.8601 17.1973 13.0287 16.7149 13.3658C16.2808 13.6548 15.919 14.1605 15.6295 14.883C15.3883 15.5573 15.1713 16.2316 14.9783 16.906C14.8336 17.5321 14.7371 18.4472 14.6889 19.6514C14.6406 20.8555 14.5924 21.8188 14.5441 22.5413C14.5441 23.2638 14.5441 24.3234 14.5441 25.7202C14.5441 27.117 14.5441 28.1766 14.5441 28.8991C14.5924 29.6216 14.6406 30.5849 14.6889 31.789C14.7371 32.9931 14.8336 33.9323 14.9783 34.6066C15.1713 35.2328 15.3883 35.9071 15.6295 36.6296C15.919 37.3039 16.2808 37.8096 16.7149 38.1468ZM27.0622 54.1135C25.7115 54.1135 22.8654 54.547 18.5239 55.414C14.1823 56.281 11.2397 56.7626 9.69609 56.8589C12.3975 60.086 16.0396 61.6995 20.6223 61.6995C23.1307 61.6995 25.4703 61.1938 27.6411 60.1823C29.8601 59.219 30.9696 58.0872 30.9696 56.7867C30.9696 55.0046 29.6672 54.1135 27.0622 54.1135Z" fill="url(#paint4_linear_178_1039)"/>
</g>
<path d="M30.5562 20.931C30.5562 22.5745 29.2217 23.9082 27.5737 23.9082C25.9258 23.9082 24.5912 22.5745 24.5912 20.931C24.5912 19.2875 25.9258 17.9539 27.5737 17.9539C29.2217 17.9539 30.5562 19.2875 30.5562 20.931Z" fill="white" stroke="#FFB5B5"/>
<path d="M38.9143 18.8447C38.9143 20.4882 37.5797 21.8219 35.9318 21.8219C34.2839 21.8219 32.9493 20.4882 32.9493 18.8447C32.9493 17.2012 34.2839 15.8676 35.9318 15.8676C37.5797 15.8676 38.9143 17.2012 38.9143 18.8447Z" fill="white" stroke="#FFB5B5"/>
<ellipse cx="35.9318" cy="18.8447" rx="1.39301" ry="1.39086" fill="#0C079C"/>
<ellipse cx="27.5737" cy="20.931" rx="1.39301" ry="1.39086" fill="#0C079C"/>
<path d="M30.9013 19.617C30.9013 19.617 31.3962 18.9934 31.7902 18.9672C32.1842 18.9409 32.5033 19.2171 32.5033 19.2171" stroke="#FFB5B5" stroke-width="1.5" stroke-linecap="round"/>
<defs>
<filter id="filter0_d_178_1039" x="0" y="0" width="36.6136" height="67" filterUnits="userSpaceOnUse" color-interpolation-filters="sRGB">
<feFlood flood-opacity="0" result="BackgroundImageFix"/>
<feColorMatrix in="SourceAlpha" type="matrix" values="0 0 0 0 0 0 0 0 0 0 0 0 0 0 0 0 0 0 127 0" result="hardAlpha"/>
<feOffset dy="4"/>
<feComposite in2="hardAlpha" operator="out"/>
<feColorMatrix type="matrix" values="0 0 0 0 0.911667 0 0 0 0 0.866667 0 0 0 0 1 0 0 0 1 0"/>
<feBlend mode="normal" in2="BackgroundImageFix" result="effect1_dropShadow_178_1039"/>
<feBlend mode="normal" in="SourceGraphic" in2="effect1_dropShadow_178_1039" result="shape"/>
</filter>
<linearGradient id="paint0_linear_178_1039" x1="92.8322" y1="-7.58171" x2="92.8322" y2="51.0664" gradientUnits="userSpaceOnUse">
<stop stop-color="#50448A"/>
<stop offset="1" stop-color="#030052"/>
</linearGradient>
<linearGradient id="paint1_linear_178_1039" x1="92.8322" y1="-7.58171" x2="92.8322" y2="51.0664" gradientUnits="userSpaceOnUse">
<stop stop-color="#50448A"/>
<stop offset="1" stop-color="#030052"/>
</linearGradient>
<linearGradient id="paint2_linear_178_1039" x1="92.8322" y1="-7.58171" x2="92.8322" y2="51.0664" gradientUnits="userSpaceOnUse">
<stop stop-color="#50448A"/>
<stop offset="1" stop-color="#030052"/>
</linearGradient>
<linearGradient id="paint3_linear_178_1039" x1="92.8322" y1="-7.58171" x2="92.8322" y2="51.0664" gradientUnits="userSpaceOnUse">
<stop stop-color="#50448A"/>
<stop offset="1" stop-color="#030052"/>
</linearGradient>
<linearGradient id="paint4_linear_178_1039" x1="18.3452" y1="-16.5065" x2="18.3452" y2="66.7909" gradientUnits="userSpaceOnUse">
<stop stop-color="#50448A"/>
<stop offset="1" stop-color="#030052"/>
</linearGradient>
</defs>
</svg>
