<svg width="74" height="102" viewBox="0 0 74 102" fill="none" xmlns="http://www.w3.org/2000/svg">
<path d="M73.6667 37.165C73.4833 17.0442 57.1667 0.819214 37 0.819214C16.8333 0.819214 0.516669 17.0442 0.333336 37.165V64.665C0.333336 84.9234 16.7417 101.332 37 101.332C57.2583 101.332 73.6667 84.9234 73.6667 64.665V37.165ZM64.5 37.165H41.5833V10.3984C54.4625 12.5525 64.3167 23.69 64.5 37.165ZM32.4167 10.3984V37.165H9.5C9.68334 23.69 19.5375 12.5525 32.4167 10.3984ZM64.5 64.665C64.5 79.8359 52.1708 92.165 37 92.165C21.8292 92.165 9.5 79.8359 9.5 64.665V46.3317H64.5V64.665Z" fill="url(#paint0_linear_217_18)"/>
<defs>
<linearGradient id="paint0_linear_217_18" x1="47" y1="34.9504" x2="-12.455" y2="60.0678" gradientUnits="userSpaceOnUse">
<stop stop-color="#723CDC"/>
<stop offset="1" stop-color="#1F0650"/>
</linearGradient>
</defs>
</svg>
