<svg width="176" height="286" viewBox="0 0 176 286" fill="none" xmlns="http://www.w3.org/2000/svg">
<g filter="url(#filter0_d_173_897)">
<path d="M8.71059 115.312C8.71059 95.1896 15.8857 79.6697 30.236 68.7523C44.5862 57.8349 62.0421 52.3761 82.6037 52.3761C89.2434 52.3761 95.776 53.0183 102.201 54.3027C96.8469 48.3089 94.1696 41.0306 94.1696 32.4679C94.1696 23.9052 97.0611 16.5199 102.844 10.3119C108.841 4.10397 116.016 1 124.369 1C132.937 1 140.005 3.46177 145.574 8.38532C151.142 13.3089 153.927 19.6238 153.927 27.3303C153.927 35.0367 151.678 41.3517 147.18 46.2752C142.682 50.9847 137.006 53.3394 130.152 53.3394C123.513 53.3394 117.944 51.4128 113.446 47.5596C109.162 43.4924 107.021 38.3547 107.021 32.1468C107.021 25.9388 109.162 21.0153 113.446 17.3761C116.659 15.8777 118.265 14.1651 118.265 12.2385C118.265 10.3119 117.301 9.34861 115.374 9.34861C114.089 9.34861 112.482 9.99081 110.555 11.2752C103.487 16.6269 99.9525 23.7982 99.9525 32.789C99.9525 44.1345 106.485 53.1254 119.55 59.7615C144.181 70.4648 156.497 88.9816 156.497 115.312C156.497 135.434 149.322 150.954 134.971 161.872C120.621 172.789 103.165 178.248 82.6037 178.248C68.4676 178.248 55.8308 175.786 44.6933 170.862C30.9856 176.642 24.1318 182.636 24.1318 188.844C24.1318 193.125 25.8452 196.015 29.2721 197.514C32.6991 198.798 38.5891 199.44 46.9422 199.44C55.2954 199.44 68.5747 197.3 86.7803 193.018C105.2 188.737 117.301 186.596 123.084 186.596C135.507 186.596 145.359 189.807 152.642 196.229C159.924 202.651 163.565 211.107 163.565 221.596C163.565 238.08 156.604 252.101 142.682 263.661C128.76 275.22 112.054 281 92.5632 281C69.4315 281 50.5834 271.902 36.0189 253.706C25.5239 252.85 17.0637 248.89 10.6382 241.826C4.21274 234.761 1 226.199 1 216.138C1 206.291 4.21274 196.979 10.6382 188.202C17.2779 179.425 26.4878 172.468 38.2678 167.33C18.563 156.199 8.71059 138.859 8.71059 115.312ZM75.2144 170.541C77.3562 171.826 79.8193 172.468 82.6037 172.468C85.3881 172.468 87.7441 171.826 89.6717 170.541C91.8136 169.043 93.4199 166.795 94.4909 163.798C95.776 160.587 96.7398 157.59 97.3823 154.807C98.2391 151.81 98.7745 147.636 98.9887 142.284C99.2029 136.933 99.31 132.651 99.31 129.44C99.5242 126.229 99.6313 121.52 99.6313 115.312C99.6313 109.104 99.5242 104.394 99.31 101.183C99.31 97.9725 99.2029 93.6911 98.9887 88.3394C98.7745 82.9878 98.2391 78.9205 97.3823 76.1376C96.7398 73.1407 95.776 70.1437 94.4909 67.1468C93.4199 63.9358 91.8136 61.6881 89.6717 60.4037C87.7441 58.9052 85.3881 58.156 82.6037 58.156C79.8193 58.156 77.3562 58.9052 75.2144 60.4037C73.2868 61.6881 71.6804 63.9358 70.3953 67.1468C69.3244 70.1437 68.3605 73.1407 67.5038 76.1376C66.8613 78.9205 66.4329 82.9878 66.2187 88.3394C66.0045 93.6911 65.7903 97.9725 65.5762 101.183C65.5762 104.394 65.5762 109.104 65.5762 115.312C65.5762 121.52 65.5762 126.229 65.5762 129.44C65.7903 132.651 66.0045 136.933 66.2187 142.284C66.4329 147.636 66.8613 151.81 67.5038 154.807C68.3605 157.59 69.3244 160.587 70.3953 163.798C71.6804 166.795 73.2868 169.043 75.2144 170.541ZM121.157 241.505C115.16 241.505 102.523 243.431 83.2463 247.284C63.9698 251.138 50.9046 253.278 44.0508 253.706C56.045 268.049 72.2158 275.22 92.5632 275.22C103.701 275.22 114.089 272.972 123.727 268.477C133.579 264.196 138.505 259.165 138.505 253.385C138.505 245.465 132.723 241.505 121.157 241.505Z" fill="url(#paint0_linear_173_897)"/>
<path d="M102.484 9.96453L102.484 9.96447L102.478 9.97111C96.6081 16.2726 93.6696 23.78 93.6696 32.4679C93.6696 40.6317 96.0747 47.6646 100.892 53.5416C94.8879 52.4312 88.7917 51.8761 82.6037 51.8761C61.9488 51.8761 44.3825 57.3616 29.9332 68.3544C15.443 79.3783 8.21059 95.0542 8.21059 115.312C8.21059 138.686 17.8657 156.031 37.1626 167.273C25.7486 172.398 16.7674 179.271 10.2394 187.9L10.2348 187.906C3.75347 196.76 0.5 206.173 0.5 216.138C0.5 226.316 3.75435 235.001 10.2684 242.162C16.7441 249.282 25.2551 253.285 35.7633 254.187C50.4034 272.388 69.3495 281.5 92.5632 281.5C112.161 281.5 128.983 275.685 143.001 264.045C157.025 252.401 164.065 238.244 164.065 221.596C164.065 210.977 160.371 202.38 152.972 195.854C145.575 189.331 135.594 186.096 123.084 186.096C117.233 186.096 105.074 188.253 86.6671 192.531L86.6658 192.532C68.4633 196.812 55.2328 198.94 46.9422 198.94C38.6024 198.94 32.7971 198.297 29.4603 197.05C27.8376 196.338 26.6423 195.309 25.8469 193.967C25.0469 192.618 24.6318 190.919 24.6318 188.844C24.6318 185.941 26.2313 183.016 29.6013 180.069C32.938 177.151 37.9574 174.26 44.6893 171.407C55.8514 176.305 68.4927 178.748 82.6037 178.748C103.259 178.748 120.825 173.262 135.274 162.269C149.764 151.246 156.997 135.57 156.997 115.312C156.997 102.067 153.898 90.7543 147.677 81.3997C141.458 72.0493 132.142 64.6904 119.763 59.3089C106.817 52.7294 100.453 43.8855 100.453 32.789C100.453 23.9572 103.911 16.9375 110.844 11.6829C112.741 10.421 114.241 9.84861 115.374 9.84861C116.261 9.84861 116.834 10.0699 117.189 10.4247C117.544 10.7796 117.765 11.3524 117.765 12.2385C117.765 13.8459 116.423 15.4357 113.235 16.923L113.174 16.9515L113.122 16.9951C108.714 20.7399 106.521 25.8094 106.521 32.1468C106.521 38.484 108.713 43.7553 113.102 47.9222L113.111 47.931L113.121 47.9393C117.72 51.8797 123.409 53.8394 130.152 53.8394C137.135 53.8394 142.944 51.4345 147.541 46.6206L147.542 46.6206L147.549 46.6125C152.144 41.5825 154.427 35.1407 154.427 27.3303C154.427 19.4866 151.585 13.0331 145.905 8.01073C140.231 2.99416 133.039 0.5 124.369 0.5C115.876 0.5 108.572 3.6627 102.484 9.96453ZM94.0267 163.612L94.0232 163.621L94.02 163.63C92.9771 166.549 91.4273 168.701 89.3898 170.128C87.5605 171.346 85.3073 171.968 82.6037 171.968C79.9106 171.968 77.547 171.35 75.4975 170.128C73.6696 168.699 72.1186 166.542 70.863 163.62C69.7984 160.428 68.8402 157.448 67.9881 154.681C67.3569 151.727 66.9315 147.592 66.7183 142.264C66.5044 136.92 66.2904 132.639 66.0762 129.424V129.422V129.403V129.384V129.365V129.346V129.327V129.308V129.289V129.27V129.251V129.231V129.212V129.193V129.174V129.154V129.135V129.116V129.096V129.077V129.057V129.038V129.018V128.999V128.979V128.959V128.94V128.92V128.9V128.88V128.86V128.841V128.821V128.801V128.781V128.761V128.741V128.721V128.701V128.681V128.66V128.64V128.62V128.6V128.579V128.559V128.539V128.518V128.498V128.477V128.457V128.436V128.416V128.395V128.374V128.354V128.333V128.312V128.291V128.271V128.25V128.229V128.208V128.187V128.166V128.145V128.124V128.103V128.082V128.061V128.039V128.018V127.997V127.976V127.954V127.933V127.911V127.89V127.868V127.847V127.825V127.804V127.782V127.761V127.739V127.717V127.695V127.674V127.652V127.63V127.608V127.586V127.564V127.542V127.52V127.498V127.476V127.454V127.432V127.41V127.387V127.365V127.343V127.321V127.298V127.276V127.253V127.231V127.208V127.186V127.163V127.141V127.118V127.095V127.073V127.05V127.027V127.004V126.981V126.959V126.936V126.913V126.89V126.867V126.844V126.821V126.797V126.774V126.751V126.728V126.705V126.681V126.658V126.635V126.611V126.588V126.564V126.541V126.517V126.494V126.47V126.447V126.423V126.399V126.375V126.352V126.328V126.304V126.28V126.256V126.232V126.208V126.184V126.16V126.136V126.112V126.088V126.064V126.04V126.015V125.991V125.967V125.942V125.918V125.894V125.869V125.845V125.82V125.796V125.771V125.746V125.722V125.697V125.672V125.647V125.623V125.598V125.573V125.548V125.523V125.498V125.473V125.448V125.423V125.398V125.373V125.348V125.322V125.297V125.272V125.247V125.221V125.196V125.17V125.145V125.119V125.094V125.068V125.043V125.017V124.992V124.966V124.94V124.914V124.889V124.863V124.837V124.811V124.785V124.759V124.733V124.707V124.681V124.655V124.629V124.603V124.576V124.55V124.524V124.498V124.471V124.445V124.418V124.392V124.365V124.339V124.312V124.286V124.259V124.233V124.206V124.179V124.152V124.126V124.099V124.072V124.045V124.018V123.991V123.964V123.937V123.91V123.883V123.856V123.829V123.801V123.774V123.747V123.72V123.692V123.665V123.638V123.61V123.583V123.555V123.528V123.5V123.472V123.445V123.417V123.389V123.362V123.334V123.306V123.278V123.25V123.222V123.194V123.166V123.138V123.11V123.082V123.054V123.026V122.998V122.97V122.941V122.913V122.885V122.856V122.828V122.799V122.771V122.742V122.714V122.685V122.657V122.628V122.599V122.571V122.542V122.513V122.484V122.456V122.427V122.398V122.369V122.34V122.311V122.282V122.253V122.224V122.194V122.165V122.136V122.107V122.077V122.048V122.019V121.989V121.96V121.93V121.901V121.871V121.842V121.812V121.783V121.753V121.723V121.693V121.664V121.634V121.604V121.574V121.544V121.514V121.484V121.454V121.424V121.394V121.364V121.334V121.304V121.274V121.243V121.213V121.183V121.152V121.122V121.092V121.061V121.031V121V120.969V120.939V120.908V120.878V120.847V120.816V120.785V120.755V120.724V120.693V120.662V120.631V120.6V120.569V120.538V120.507V120.476V120.445V120.413V120.382V120.351V120.32V120.288V120.257V120.226V120.194V120.163V120.131V120.1V120.068V120.037V120.005V119.973V119.942V119.91V119.878V119.846V119.815V119.783V119.751V119.719V119.687V119.655V119.623V119.591V119.559V119.527V119.494V119.462V119.43V119.398V119.365V119.333V119.301V119.268V119.236V119.203V119.171V119.138V119.106V119.073V119.04V119.008V118.975V118.942V118.909V118.877V118.844V118.811V118.778V118.745V118.712V118.679V118.646V118.613V118.58V118.546V118.513V118.48V118.447V118.413V118.38V118.347V118.313V118.28V118.246V118.213V118.179V118.146V118.112V118.078V118.045V118.011V117.977V117.944V117.91V117.876V117.842V117.808V117.774V117.74V117.706V117.672V117.638V117.604V117.57V117.535V117.501V117.467V117.433V117.398V117.364V117.33V117.295V117.261V117.226V117.192V117.157V117.122V117.088V117.053V117.018V116.984V116.949V116.914V116.879V116.844V116.809V116.774V116.739V116.704V116.669V116.634V116.599V116.564V116.529V116.494V116.458V116.423V116.388V116.352V116.317V116.282V116.246V116.211V116.175V116.139V116.104V116.068V116.033V115.997V115.961V115.925V115.89V115.854V115.818V115.782V115.746V115.71V115.674V115.638V115.602V115.566V115.53V115.493V115.457V115.421V115.385V115.348V115.312V115.276V115.239V115.203V115.167V115.13V115.094V115.058V115.022V114.986V114.95V114.914V114.878V114.842V114.806V114.77V114.734V114.699V114.663V114.627V114.591V114.556V114.52V114.484V114.449V114.413V114.378V114.342V114.307V114.271V114.236V114.201V114.165V114.13V114.095V114.06V114.025V113.99V113.954V113.919V113.884V113.849V113.814V113.78V113.745V113.71V113.675V113.64V113.605V113.571V113.536V113.501V113.467V113.432V113.398V113.363V113.329V113.294V113.26V113.226V113.191V113.157V113.123V113.088V113.054V113.02V112.986V112.952V112.918V112.884V112.85V112.816V112.782V112.748V112.714V112.68V112.646V112.613V112.579V112.545V112.512V112.478V112.444V112.411V112.377V112.344V112.311V112.277V112.244V112.21V112.177V112.144V112.111V112.077V112.044V112.011V111.978V111.945V111.912V111.879V111.846V111.813V111.78V111.747V111.714V111.682V111.649V111.616V111.583V111.551V111.518V111.486V111.453V111.421V111.388V111.356V111.323V111.291V111.258V111.226V111.194V111.162V111.129V111.097V111.065V111.033V111.001V110.969V110.937V110.905V110.873V110.841V110.809V110.777V110.746V110.714V110.682V110.65V110.619V110.587V110.556V110.524V110.492V110.461V110.43V110.398V110.367V110.335V110.304V110.273V110.242V110.21V110.179V110.148V110.117V110.086V110.055V110.024V109.993V109.962V109.931V109.9V109.869V109.838V109.808V109.777V109.746V109.716V109.685V109.654V109.624V109.593V109.563V109.532V109.502V109.472V109.441V109.411V109.381V109.35V109.32V109.29V109.26V109.23V109.2V109.17V109.139V109.11V109.08V109.05V109.02V108.99V108.96V108.93V108.901V108.871V108.841V108.812V108.782V108.752V108.723V108.693V108.664V108.635V108.605V108.576V108.546V108.517V108.488V108.459V108.429V108.4V108.371V108.342V108.313V108.284V108.255V108.226V108.197V108.168V108.139V108.111V108.082V108.053V108.024V107.996V107.967V107.939V107.91V107.881V107.853V107.824V107.796V107.768V107.739V107.711V107.683V107.654V107.626V107.598V107.57V107.542V107.514V107.485V107.457V107.429V107.402V107.374V107.346V107.318V107.29V107.262V107.234V107.207V107.179V107.151V107.124V107.096V107.069V107.041V107.014V106.986V106.959V106.932V106.904V106.877V106.85V106.822V106.795V106.768V106.741V106.714V106.687V106.66V106.633V106.606V106.579V106.552V106.525V106.498V106.471V106.445V106.418V106.391V106.365V106.338V106.311V106.285V106.258V106.232V106.205V106.179V106.153V106.126V106.1V106.074V106.048V106.021V105.995V105.969V105.943V105.917V105.891V105.865V105.839V105.813V105.787V105.761V105.735V105.71V105.684V105.658V105.632V105.607V105.581V105.555V105.53V105.504V105.479V105.453V105.428V105.403V105.377V105.352V105.327V105.301V105.276V105.251V105.226V105.201V105.176V105.151V105.126V105.101V105.076V105.051V105.026V105.001V104.976V104.952V104.927V104.902V104.878V104.853V104.828V104.804V104.779V104.755V104.73V104.706V104.681V104.657V104.633V104.609V104.584V104.56V104.536V104.512V104.488V104.464V104.439V104.415V104.392V104.368V104.344V104.32V104.296V104.272V104.248V104.225V104.201V104.177V104.154V104.13V104.106V104.083V104.059V104.036V104.013V103.989V103.966V103.942V103.919V103.896V103.873V103.85V103.826V103.803V103.78V103.757V103.734V103.711V103.688V103.665V103.642V103.62V103.597V103.574V103.551V103.528V103.506V103.483V103.461V103.438V103.415V103.393V103.37V103.348V103.326V103.303V103.281V103.259V103.236V103.214V103.192V103.17V103.148V103.126V103.104V103.082V103.06V103.038V103.016V102.994V102.972V102.95V102.928V102.907V102.885V102.863V102.842V102.82V102.798V102.777V102.755V102.734V102.712V102.691V102.67V102.648V102.627V102.606V102.585V102.563V102.542V102.521V102.5V102.479V102.458V102.437V102.416V102.395V102.374V102.353V102.332V102.312V102.291V102.27V102.249V102.229V102.208V102.188V102.167V102.147V102.126V102.106V102.085V102.065V102.045V102.024V102.004V101.984V101.963V101.943V101.923V101.903V101.883V101.863V101.843V101.823V101.803V101.783V101.763V101.744V101.724V101.704V101.684V101.665V101.645V101.625V101.606V101.586V101.567V101.547V101.528V101.508V101.489V101.47V101.45V101.431V101.412V101.393V101.373V101.354V101.335V101.316V101.297V101.278V101.259V101.24V101.221V101.202V101.2C66.2904 97.9846 66.5044 93.7038 66.7183 88.3594C66.9318 83.0251 67.3578 78.9991 67.9881 76.2626C68.8401 73.2833 69.7983 70.3038 70.8629 67.3239C72.1273 64.1679 73.6819 62.0256 75.4916 60.8198L75.4917 60.8199L75.501 60.8133C77.5532 59.3776 79.9148 58.656 82.6037 58.656C85.2933 58.656 87.5371 59.3776 89.3649 60.7984L89.3887 60.8169L89.4146 60.8325C91.4226 62.0366 92.9699 64.1668 94.0165 67.305L94.0231 67.3247L94.0313 67.3438C95.3045 70.3129 96.2581 73.279 96.8934 76.2424L96.898 76.2638L96.9045 76.2847C97.742 79.0053 98.2755 83.0213 98.4891 88.3594C98.7032 93.7082 98.81 97.9821 98.81 101.183V101.2L98.8111 101.217C99.0241 104.411 99.1313 109.107 99.1313 115.312C99.1313 121.517 99.0241 126.213 98.8111 129.407L98.81 129.424V129.44C98.81 132.642 98.7032 136.916 98.4891 142.264C98.2755 147.6 97.7423 151.729 96.9016 154.67L96.898 154.682L96.8951 154.695C96.2594 157.448 95.3041 160.42 94.0267 163.612ZM123.527 268.018L123.515 268.024C113.947 272.487 103.631 274.72 92.5632 274.72C72.7075 274.72 56.894 267.854 45.0707 254.135C52.1906 253.574 64.9572 251.45 83.3443 247.775C102.632 243.919 115.218 242.005 121.157 242.005C126.898 242.005 131.116 242.99 133.886 244.887C136.622 246.761 138.005 249.565 138.005 253.385C138.005 258.835 133.36 263.746 123.527 268.018Z" stroke="black"/>
</g>
<path d="M138.39 94.0262C138.39 102.285 131.692 108.98 123.428 108.98C115.164 108.98 108.465 102.285 108.465 94.0262C108.465 85.7676 115.164 79.0721 123.428 79.0721C131.692 79.0721 138.39 85.7676 138.39 94.0262Z" fill="white" stroke="#FFB5B5"/>
<path d="M175.5 84.7541C175.5 93.0127 168.801 99.7082 160.538 99.7082C152.274 99.7082 145.575 93.0127 145.575 84.7541C145.575 76.4955 152.274 69.8 160.538 69.8C168.801 69.8 175.5 76.4955 175.5 84.7541Z" fill="white" stroke="#FFB5B5"/>
<ellipse cx="160.537" cy="84.7538" rx="6.18496" ry="6.18162" fill="#0C079C"/>
<ellipse cx="123.428" cy="94.0271" rx="6.18496" ry="6.18162" fill="#0C079C"/>
<path d="M138.203 88.1887C138.203 88.1887 140.4 85.415 142.149 85.2986C143.898 85.1823 145.316 86.4113 145.316 86.4113" stroke="#FFB5B5" stroke-width="1.5" stroke-linecap="round"/>
<defs>
<filter id="filter0_d_173_897" x="0" y="0" width="164.565" height="286" filterUnits="userSpaceOnUse" color-interpolation-filters="sRGB">
<feFlood flood-opacity="0" result="BackgroundImageFix"/>
<feColorMatrix in="SourceAlpha" type="matrix" values="0 0 0 0 0 0 0 0 0 0 0 0 0 0 0 0 0 0 127 0" result="hardAlpha"/>
<feOffset dy="4"/>
<feComposite in2="hardAlpha" operator="out"/>
<feColorMatrix type="matrix" values="0 0 0 0 0.911667 0 0 0 0 0.866667 0 0 0 0 1 0 0 0 1 0"/>
<feBlend mode="normal" in2="BackgroundImageFix" result="effect1_dropShadow_173_897"/>
<feBlend mode="normal" in="SourceGraphic" in2="effect1_dropShadow_173_897" result="shape"/>
</filter>
<linearGradient id="paint0_linear_173_897" x1="82.4527" y1="-72.362" x2="82.4527" y2="297.848" gradientUnits="userSpaceOnUse">
<stop stop-color="#50448A"/>
<stop offset="1" stop-color="#030052"/>
</linearGradient>
</defs>
</svg>
