<svg width="84" height="84" viewBox="0 0 84 84" fill="none" xmlns="http://www.w3.org/2000/svg">
<path d="M42 0.825439C19.2208 0.825439 0.75 19.2963 0.75 42.0754V74.1588C0.75 79.2004 4.875 83.3254 9.91667 83.3254H28.25V46.6588H9.91667V42.0754C9.91667 24.3379 24.2625 9.99211 42 9.99211C59.7375 9.99211 74.0833 24.3379 74.0833 42.0754V46.6588H55.75V83.3254H74.0833C79.125 83.3254 83.25 79.2004 83.25 74.1588V42.0754C83.25 19.2963 64.7792 0.825439 42 0.825439ZM19.0833 55.8254V74.1588H9.91667V55.8254H19.0833ZM74.0833 74.1588H64.9167V55.8254H74.0833V74.1588Z" fill="url(#paint0_linear_217_65)"/>
<defs>
<linearGradient id="paint0_linear_217_65" x1="53.25" y1="28.8401" x2="-5.78207" y2="63.0217" gradientUnits="userSpaceOnUse">
<stop stop-color="#723CDC"/>
<stop offset="1" stop-color="#1F0650"/>
</linearGradient>
</defs>
</svg>
