<svg width="480" height="464" viewBox="0 0 480 464" fill="none" xmlns="http://www.w3.org/2000/svg">
<rect width="480" height="464" rx="20" fill="#EAE7FA"/>
<rect x="60" y="60" width="170" height="162" rx="10" fill="white"/>
<g filter="url(#filter0_i_173_978)">
<path d="M190.833 154.792V86.0417H99.1667V154.792H90V163.958H200V154.792H190.833ZM154.167 154.792H135.833V150.208H154.167V154.792ZM181.667 141.042H108.333V95.2084H181.667V141.042Z" fill="url(#paint0_linear_173_978)"/>
</g>
<path d="M110.938 198V183.455H114.886V194.818H120.767V198H110.938ZM125.46 198.17C124.764 198.17 124.148 198.057 123.613 197.83C123.083 197.598 122.666 197.247 122.363 196.778C122.06 196.31 121.909 195.713 121.909 194.989C121.909 194.392 122.011 193.883 122.214 193.462C122.418 193.036 122.702 192.688 123.066 192.418C123.431 192.148 123.855 191.942 124.338 191.8C124.825 191.658 125.351 191.565 125.914 191.523C126.525 191.475 127.015 191.419 127.385 191.352C127.759 191.281 128.029 191.184 128.194 191.061C128.36 190.933 128.443 190.765 128.443 190.557V190.528C128.443 190.244 128.334 190.027 128.116 189.875C127.898 189.723 127.619 189.648 127.278 189.648C126.904 189.648 126.599 189.731 126.362 189.896C126.13 190.057 125.99 190.306 125.943 190.642H122.335C122.382 189.979 122.593 189.368 122.967 188.81C123.346 188.246 123.897 187.796 124.622 187.46C125.346 187.119 126.251 186.949 127.335 186.949C128.116 186.949 128.817 187.041 129.437 187.226C130.057 187.406 130.585 187.659 131.021 187.986C131.457 188.308 131.788 188.687 132.015 189.122C132.247 189.553 132.363 190.022 132.363 190.528V198H128.699V196.466H128.613C128.395 196.873 128.13 197.202 127.818 197.453C127.51 197.704 127.157 197.886 126.76 198C126.367 198.114 125.933 198.17 125.46 198.17ZM126.738 195.699C127.037 195.699 127.316 195.637 127.576 195.514C127.842 195.391 128.057 195.214 128.223 194.982C128.388 194.75 128.471 194.468 128.471 194.136V193.227C128.367 193.27 128.256 193.31 128.137 193.348C128.024 193.386 127.901 193.421 127.768 193.455C127.64 193.488 127.503 193.518 127.356 193.547C127.214 193.575 127.065 193.601 126.909 193.625C126.606 193.672 126.357 193.75 126.163 193.859C125.974 193.964 125.832 194.094 125.737 194.25C125.647 194.402 125.602 194.572 125.602 194.761C125.602 195.064 125.708 195.296 125.922 195.457C126.135 195.618 126.407 195.699 126.738 195.699ZM134.237 202.091V187.091H138.129V188.994H138.214C138.356 188.625 138.564 188.286 138.839 187.979C139.113 187.666 139.454 187.418 139.862 187.233C140.269 187.044 140.742 186.949 141.282 186.949C142.002 186.949 142.686 187.141 143.335 187.524C143.988 187.908 144.518 188.511 144.925 189.335C145.337 190.159 145.543 191.229 145.543 192.545C145.543 193.805 145.347 194.849 144.954 195.678C144.566 196.506 144.045 197.124 143.391 197.531C142.743 197.938 142.03 198.142 141.254 198.142C140.742 198.142 140.285 198.059 139.883 197.893C139.485 197.723 139.144 197.493 138.86 197.205C138.581 196.911 138.365 196.58 138.214 196.21H138.157V202.091H134.237ZM138.072 192.545C138.072 193.076 138.14 193.535 138.278 193.923C138.42 194.307 138.619 194.605 138.874 194.818C139.135 195.027 139.445 195.131 139.805 195.131C140.165 195.131 140.47 195.029 140.721 194.825C140.977 194.617 141.171 194.321 141.303 193.938C141.441 193.549 141.509 193.085 141.509 192.545C141.509 192.006 141.441 191.544 141.303 191.161C141.171 190.772 140.977 190.476 140.721 190.273C140.47 190.064 140.165 189.96 139.805 189.96C139.445 189.96 139.135 190.064 138.874 190.273C138.619 190.476 138.42 190.772 138.278 191.161C138.14 191.544 138.072 192.006 138.072 192.545ZM153.691 187.091V189.932H146.504V187.091H153.691ZM147.896 184.477H151.816V194.491C151.816 194.643 151.842 194.771 151.895 194.875C151.947 194.974 152.027 195.05 152.136 195.102C152.245 195.15 152.385 195.173 152.555 195.173C152.673 195.173 152.811 195.159 152.967 195.131C153.128 195.102 153.246 195.079 153.322 195.06L153.89 197.815C153.715 197.867 153.464 197.931 153.137 198.007C152.815 198.083 152.432 198.133 151.987 198.156C151.087 198.204 150.332 198.111 149.721 197.879C149.11 197.643 148.651 197.271 148.343 196.764C148.036 196.258 147.886 195.623 147.896 194.861V184.477ZM160.43 198.199C159.246 198.199 158.233 197.964 157.39 197.496C156.547 197.022 155.901 196.364 155.451 195.521C155.001 194.674 154.776 193.691 154.776 192.574C154.776 191.456 155.001 190.476 155.451 189.634C155.901 188.786 156.547 188.128 157.39 187.659C158.233 187.186 159.246 186.949 160.43 186.949C161.613 186.949 162.627 187.186 163.469 187.659C164.312 188.128 164.959 188.786 165.408 189.634C165.858 190.476 166.083 191.456 166.083 192.574C166.083 193.691 165.858 194.674 165.408 195.521C164.959 196.364 164.312 197.022 163.469 197.496C162.627 197.964 161.613 198.199 160.43 198.199ZM160.458 195.301C160.79 195.301 161.076 195.19 161.317 194.967C161.559 194.745 161.746 194.428 161.879 194.016C162.011 193.604 162.077 193.114 162.077 192.545C162.077 191.973 162.011 191.482 161.879 191.075C161.746 190.663 161.559 190.346 161.317 190.124C161.076 189.901 160.79 189.79 160.458 189.79C160.108 189.79 159.807 189.901 159.556 190.124C159.305 190.346 159.113 190.663 158.981 191.075C158.848 191.482 158.782 191.973 158.782 192.545C158.782 193.114 158.848 193.604 158.981 194.016C159.113 194.428 159.305 194.745 159.556 194.967C159.807 195.19 160.108 195.301 160.458 195.301ZM167.674 202.091V187.091H171.566V188.994H171.651C171.793 188.625 172.002 188.286 172.276 187.979C172.551 187.666 172.892 187.418 173.299 187.233C173.706 187.044 174.18 186.949 174.719 186.949C175.439 186.949 176.123 187.141 176.772 187.524C177.425 187.908 177.956 188.511 178.363 189.335C178.775 190.159 178.981 191.229 178.981 192.545C178.981 193.805 178.784 194.849 178.391 195.678C178.003 196.506 177.482 197.124 176.829 197.531C176.18 197.938 175.468 198.142 174.691 198.142C174.18 198.142 173.723 198.059 173.32 197.893C172.923 197.723 172.582 197.493 172.298 197.205C172.018 196.911 171.803 196.58 171.651 196.21H171.594V202.091H167.674ZM171.509 192.545C171.509 193.076 171.578 193.535 171.715 193.923C171.857 194.307 172.056 194.605 172.312 194.818C172.572 195.027 172.882 195.131 173.242 195.131C173.602 195.131 173.907 195.029 174.158 194.825C174.414 194.617 174.608 194.321 174.741 193.938C174.878 193.549 174.947 193.085 174.947 192.545C174.947 192.006 174.878 191.544 174.741 191.161C174.608 190.772 174.414 190.476 174.158 190.273C173.907 190.064 173.602 189.96 173.242 189.96C172.882 189.96 172.572 190.064 172.312 190.273C172.056 190.476 171.857 190.772 171.715 191.161C171.578 191.544 171.509 192.006 171.509 192.545Z" fill="#2B3674"/>
<g filter="url(#filter1_d_173_978)">
<rect x="250" y="60" width="170" height="162" rx="10" fill="white" shape-rendering="crispEdges"/>
<g filter="url(#filter2_i_173_978)">
<path d="M376.25 83.75H293.75C288.708 83.75 284.583 87.875 284.583 92.9167V147.917C284.583 152.958 288.708 157.083 293.75 157.083H316.667V166.25H353.333V157.083H376.25C381.292 157.083 385.371 152.958 385.371 147.917L385.417 92.9167C385.417 87.875 381.292 83.75 376.25 83.75ZM376.25 147.917H293.75V92.9167H376.25V147.917Z" fill="url(#paint1_linear_173_978)"/>
</g>
<path d="M295.938 183.455H300.852L304.233 191.693H304.403L307.784 183.455H312.699V198H308.835V189.591H308.722L305.483 197.886H303.153L299.915 189.534H299.801V198H295.938V183.455ZM319.883 198.199C318.699 198.199 317.686 197.964 316.843 197.496C316 197.022 315.354 196.364 314.904 195.521C314.454 194.674 314.229 193.691 314.229 192.574C314.229 191.456 314.454 190.476 314.904 189.634C315.354 188.786 316 188.128 316.843 187.659C317.686 187.186 318.699 186.949 319.883 186.949C321.067 186.949 322.08 187.186 322.923 187.659C323.765 188.128 324.412 188.786 324.862 189.634C325.311 190.476 325.536 191.456 325.536 192.574C325.536 193.691 325.311 194.674 324.862 195.521C324.412 196.364 323.765 197.022 322.923 197.496C322.08 197.964 321.067 198.199 319.883 198.199ZM319.911 195.301C320.243 195.301 320.529 195.19 320.771 194.967C321.012 194.745 321.199 194.428 321.332 194.016C321.464 193.604 321.531 193.114 321.531 192.545C321.531 191.973 321.464 191.482 321.332 191.075C321.199 190.663 321.012 190.346 320.771 190.124C320.529 189.901 320.243 189.79 319.911 189.79C319.561 189.79 319.26 189.901 319.009 190.124C318.758 190.346 318.567 190.663 318.434 191.075C318.301 191.482 318.235 191.973 318.235 192.545C318.235 193.114 318.301 193.604 318.434 194.016C318.567 194.428 318.758 194.745 319.009 194.967C319.26 195.19 319.561 195.301 319.911 195.301ZM331.048 191.864V198H327.127V187.091H330.849V189.165H330.962C331.199 188.473 331.616 187.931 332.212 187.538C332.814 187.145 333.514 186.949 334.315 186.949C335.086 186.949 335.756 187.126 336.325 187.482C336.897 187.832 337.34 188.315 337.653 188.93C337.97 189.546 338.126 190.249 338.121 191.04V198H334.201V191.864C334.206 191.324 334.068 190.9 333.789 190.592C333.514 190.285 333.131 190.131 332.638 190.131C332.317 190.131 332.035 190.202 331.793 190.344C331.557 190.481 331.374 190.68 331.246 190.94C331.119 191.196 331.052 191.504 331.048 191.864ZM340.057 198V187.091H343.977V198H340.057ZM342.017 185.955C341.487 185.955 341.032 185.779 340.653 185.429C340.275 185.079 340.085 184.657 340.085 184.165C340.085 183.672 340.275 183.251 340.653 182.901C341.032 182.55 341.487 182.375 342.017 182.375C342.552 182.375 343.007 182.55 343.381 182.901C343.759 183.251 343.949 183.672 343.949 184.165C343.949 184.657 343.759 185.079 343.381 185.429C343.007 185.779 342.552 185.955 342.017 185.955ZM352.48 187.091V189.932H345.293V187.091H352.48ZM346.685 184.477H350.605V194.491C350.605 194.643 350.632 194.771 350.684 194.875C350.736 194.974 350.816 195.05 350.925 195.102C351.034 195.15 351.174 195.173 351.344 195.173C351.462 195.173 351.6 195.159 351.756 195.131C351.917 195.102 352.035 195.079 352.111 195.06L352.679 197.815C352.504 197.867 352.253 197.931 351.926 198.007C351.605 198.083 351.221 198.133 350.776 198.156C349.876 198.204 349.121 198.111 348.51 197.879C347.9 197.643 347.44 197.271 347.132 196.764C346.825 196.258 346.676 195.623 346.685 194.861V184.477ZM359.219 198.199C358.035 198.199 357.022 197.964 356.179 197.496C355.336 197.022 354.69 196.364 354.24 195.521C353.79 194.674 353.565 193.691 353.565 192.574C353.565 191.456 353.79 190.476 354.24 189.634C354.69 188.786 355.336 188.128 356.179 187.659C357.022 187.186 358.035 186.949 359.219 186.949C360.402 186.949 361.416 187.186 362.259 187.659C363.101 188.128 363.748 188.786 364.197 189.634C364.647 190.476 364.872 191.456 364.872 192.574C364.872 193.691 364.647 194.674 364.197 195.521C363.748 196.364 363.101 197.022 362.259 197.496C361.416 197.964 360.402 198.199 359.219 198.199ZM359.247 195.301C359.579 195.301 359.865 195.19 360.107 194.967C360.348 194.745 360.535 194.428 360.668 194.016C360.8 193.604 360.866 193.114 360.866 192.545C360.866 191.973 360.8 191.482 360.668 191.075C360.535 190.663 360.348 190.346 360.107 190.124C359.865 189.901 359.579 189.79 359.247 189.79C358.897 189.79 358.596 189.901 358.345 190.124C358.094 190.346 357.902 190.663 357.77 191.075C357.637 191.482 357.571 191.973 357.571 192.545C357.571 193.114 357.637 193.604 357.77 194.016C357.902 194.428 358.094 194.745 358.345 194.967C358.596 195.19 358.897 195.301 359.247 195.301ZM366.463 198V187.091H370.27V189.165H370.384C370.582 188.398 370.897 187.837 371.328 187.482C371.764 187.126 372.273 186.949 372.855 186.949C373.026 186.949 373.194 186.963 373.359 186.991C373.53 187.015 373.693 187.051 373.849 187.098V190.443C373.655 190.377 373.416 190.327 373.132 190.294C372.848 190.261 372.604 190.244 372.401 190.244C372.017 190.244 371.671 190.332 371.364 190.507C371.061 190.678 370.821 190.919 370.646 191.232C370.471 191.539 370.384 191.902 370.384 192.318V198H366.463Z" fill="#2B3674"/>
</g>
<rect x="60" y="242" width="170" height="162" rx="10" fill="white"/>
<g filter="url(#filter3_i_173_978)">
<path d="M145 265.75C122.221 265.75 103.75 284.221 103.75 307V339.083C103.75 344.125 107.875 348.25 112.917 348.25H131.25V311.583H112.917V307C112.917 289.263 127.263 274.917 145 274.917C162.738 274.917 177.083 289.263 177.083 307V311.583H158.75V348.25H177.083C182.125 348.25 186.25 344.125 186.25 339.083V307C186.25 284.221 167.779 265.75 145 265.75ZM122.083 320.75V339.083H112.917V320.75H122.083ZM177.083 339.083H167.917V320.75H177.083V339.083Z" fill="url(#paint2_linear_173_978)"/>
</g>
<path d="M94.4375 380V365.455H98.3864V371.136H103.614V365.455H107.562V380H103.614V374.318H98.3864V380H94.4375ZM114.722 380.199C113.557 380.199 112.553 379.976 111.71 379.531C110.872 379.081 110.226 378.437 109.771 377.599C109.321 376.757 109.097 375.748 109.097 374.574C109.097 373.447 109.324 372.462 109.778 371.619C110.233 370.777 110.875 370.121 111.703 369.652C112.532 369.183 113.509 368.949 114.636 368.949C115.46 368.949 116.206 369.077 116.874 369.332C117.541 369.588 118.112 369.96 118.585 370.447C119.059 370.93 119.423 371.518 119.679 372.209C119.935 372.9 120.062 373.679 120.062 374.545V375.455H110.318V373.295H116.455C116.45 372.983 116.369 372.708 116.213 372.472C116.062 372.23 115.856 372.043 115.595 371.911C115.339 371.773 115.048 371.705 114.722 371.705C114.404 371.705 114.113 371.773 113.848 371.911C113.583 372.043 113.37 372.228 113.209 372.464C113.053 372.701 112.97 372.978 112.96 373.295V375.625C112.96 375.975 113.034 376.288 113.18 376.562C113.327 376.837 113.538 377.053 113.812 377.209C114.087 377.365 114.419 377.443 114.807 377.443C115.077 377.443 115.323 377.405 115.545 377.33C115.773 377.254 115.967 377.145 116.128 377.003C116.289 376.856 116.407 376.681 116.483 376.477H120.062C119.939 377.235 119.648 377.893 119.189 378.452C118.73 379.006 118.121 379.437 117.364 379.744C116.611 380.047 115.73 380.199 114.722 380.199ZM124.702 380.17C124.006 380.17 123.391 380.057 122.855 379.83C122.325 379.598 121.908 379.247 121.605 378.778C121.302 378.31 121.151 377.713 121.151 376.989C121.151 376.392 121.253 375.883 121.456 375.462C121.66 375.036 121.944 374.688 122.309 374.418C122.673 374.148 123.097 373.942 123.58 373.8C124.068 373.658 124.593 373.565 125.157 373.523C125.767 373.475 126.257 373.419 126.627 373.352C127.001 373.281 127.271 373.184 127.436 373.061C127.602 372.933 127.685 372.765 127.685 372.557V372.528C127.685 372.244 127.576 372.027 127.358 371.875C127.141 371.723 126.861 371.648 126.52 371.648C126.146 371.648 125.841 371.731 125.604 371.896C125.372 372.057 125.232 372.306 125.185 372.642H121.577C121.624 371.979 121.835 371.368 122.209 370.81C122.588 370.246 123.14 369.796 123.864 369.46C124.588 369.119 125.493 368.949 126.577 368.949C127.358 368.949 128.059 369.041 128.679 369.226C129.3 369.406 129.828 369.659 130.263 369.986C130.699 370.308 131.03 370.687 131.257 371.122C131.489 371.553 131.605 372.022 131.605 372.528V380H127.941V378.466H127.855C127.638 378.873 127.373 379.202 127.06 379.453C126.752 379.704 126.4 379.886 126.002 380C125.609 380.114 125.176 380.17 124.702 380.17ZM125.98 377.699C126.279 377.699 126.558 377.637 126.819 377.514C127.084 377.391 127.299 377.214 127.465 376.982C127.631 376.75 127.713 376.468 127.713 376.136V375.227C127.609 375.27 127.498 375.31 127.38 375.348C127.266 375.386 127.143 375.421 127.01 375.455C126.882 375.488 126.745 375.518 126.598 375.547C126.456 375.575 126.307 375.601 126.151 375.625C125.848 375.672 125.599 375.75 125.405 375.859C125.216 375.964 125.074 376.094 124.979 376.25C124.889 376.402 124.844 376.572 124.844 376.761C124.844 377.064 124.951 377.296 125.164 377.457C125.377 377.618 125.649 377.699 125.98 377.699ZM133.479 384.091V369.091H137.371V370.994H137.456C137.598 370.625 137.806 370.286 138.081 369.979C138.356 369.666 138.696 369.418 139.104 369.233C139.511 369.044 139.984 368.949 140.524 368.949C141.244 368.949 141.928 369.141 142.577 369.524C143.23 369.908 143.76 370.511 144.168 371.335C144.58 372.159 144.786 373.229 144.786 374.545C144.786 375.805 144.589 376.849 144.196 377.678C143.808 378.506 143.287 379.124 142.634 379.531C141.985 379.938 141.272 380.142 140.496 380.142C139.984 380.142 139.527 380.059 139.125 379.893C138.727 379.723 138.386 379.493 138.102 379.205C137.823 378.911 137.607 378.58 137.456 378.21H137.399V384.091H133.479ZM137.314 374.545C137.314 375.076 137.383 375.535 137.52 375.923C137.662 376.307 137.861 376.605 138.116 376.818C138.377 377.027 138.687 377.131 139.047 377.131C139.407 377.131 139.712 377.029 139.963 376.825C140.219 376.617 140.413 376.321 140.545 375.938C140.683 375.549 140.751 375.085 140.751 374.545C140.751 374.006 140.683 373.544 140.545 373.161C140.413 372.772 140.219 372.476 139.963 372.273C139.712 372.064 139.407 371.96 139.047 371.96C138.687 371.96 138.377 372.064 138.116 372.273C137.861 372.476 137.662 372.772 137.52 373.161C137.383 373.544 137.314 374.006 137.314 374.545ZM150.348 373.864V380H146.428V365.455H150.206V371.165H150.32C150.566 370.469 150.976 369.927 151.549 369.538C152.122 369.145 152.81 368.949 153.615 368.949C154.387 368.949 155.057 369.124 155.625 369.474C156.198 369.825 156.641 370.308 156.953 370.923C157.271 371.539 157.427 372.244 157.422 373.04V380H153.502V373.864C153.507 373.324 153.372 372.9 153.097 372.592C152.827 372.285 152.441 372.131 151.939 372.131C151.622 372.131 151.343 372.202 151.101 372.344C150.864 372.481 150.68 372.68 150.547 372.94C150.419 373.196 150.353 373.504 150.348 373.864ZM164.613 380.199C163.43 380.199 162.416 379.964 161.574 379.496C160.731 379.022 160.084 378.364 159.635 377.521C159.185 376.674 158.96 375.691 158.96 374.574C158.96 373.456 159.185 372.476 159.635 371.634C160.084 370.786 160.731 370.128 161.574 369.659C162.416 369.186 163.43 368.949 164.613 368.949C165.797 368.949 166.81 369.186 167.653 369.659C168.496 370.128 169.142 370.786 169.592 371.634C170.042 372.476 170.267 373.456 170.267 374.574C170.267 375.691 170.042 376.674 169.592 377.521C169.142 378.364 168.496 379.022 167.653 379.496C166.81 379.964 165.797 380.199 164.613 380.199ZM164.642 377.301C164.973 377.301 165.26 377.19 165.501 376.967C165.743 376.745 165.93 376.428 166.062 376.016C166.195 375.604 166.261 375.114 166.261 374.545C166.261 373.973 166.195 373.482 166.062 373.075C165.93 372.663 165.743 372.346 165.501 372.124C165.26 371.901 164.973 371.79 164.642 371.79C164.291 371.79 163.991 371.901 163.74 372.124C163.489 372.346 163.297 372.663 163.164 373.075C163.032 373.482 162.966 373.973 162.966 374.545C162.966 375.114 163.032 375.604 163.164 376.016C163.297 376.428 163.489 376.745 163.74 376.967C163.991 377.19 164.291 377.301 164.642 377.301ZM175.778 373.864V380H171.858V369.091H175.579V371.165H175.693C175.93 370.473 176.346 369.931 176.943 369.538C177.544 369.145 178.245 368.949 179.045 368.949C179.817 368.949 180.487 369.126 181.055 369.482C181.628 369.832 182.071 370.315 182.383 370.93C182.7 371.546 182.857 372.249 182.852 373.04V380H178.931V373.864C178.936 373.324 178.799 372.9 178.52 372.592C178.245 372.285 177.861 372.131 177.369 372.131C177.047 372.131 176.765 372.202 176.524 372.344C176.287 372.481 176.105 372.68 175.977 372.94C175.849 373.196 175.783 373.504 175.778 373.864ZM190.015 380.199C188.85 380.199 187.846 379.976 187.003 379.531C186.165 379.081 185.519 378.437 185.064 377.599C184.614 376.757 184.39 375.748 184.39 374.574C184.39 373.447 184.617 372.462 185.071 371.619C185.526 370.777 186.167 370.121 186.996 369.652C187.825 369.183 188.802 368.949 189.929 368.949C190.753 368.949 191.499 369.077 192.167 369.332C192.834 369.588 193.405 369.96 193.878 370.447C194.352 370.93 194.716 371.518 194.972 372.209C195.228 372.9 195.355 373.679 195.355 374.545V375.455H185.611V373.295H191.748C191.743 372.983 191.662 372.708 191.506 372.472C191.355 372.23 191.149 372.043 190.888 371.911C190.632 371.773 190.341 371.705 190.015 371.705C189.697 371.705 189.406 371.773 189.141 371.911C188.876 372.043 188.663 372.228 188.502 372.464C188.346 372.701 188.263 372.978 188.253 373.295V375.625C188.253 375.975 188.327 376.288 188.473 376.562C188.62 376.837 188.831 377.053 189.105 377.209C189.38 377.365 189.712 377.443 190.1 377.443C190.37 377.443 190.616 377.405 190.838 377.33C191.066 377.254 191.26 377.145 191.421 377.003C191.582 376.856 191.7 376.681 191.776 376.477H195.355C195.232 377.235 194.941 377.893 194.482 378.452C194.023 379.006 193.414 379.437 192.657 379.744C191.904 380.047 191.023 380.199 190.015 380.199Z" fill="#2B3674"/>
<rect x="250" y="242" width="170" height="162" rx="10" fill="white"/>
<g filter="url(#filter4_d_173_978)">
<path d="M371.667 293.09C371.483 272.969 355.167 256.744 335 256.744C314.833 256.744 298.517 272.969 298.333 293.09V320.59C298.333 340.848 314.742 357.256 335 357.256C355.258 357.256 371.667 340.848 371.667 320.59V293.09ZM362.5 293.09H339.583V266.323C352.463 268.477 362.317 279.615 362.5 293.09ZM330.417 266.323V293.09H307.5C307.683 279.615 317.538 268.477 330.417 266.323ZM362.5 320.59C362.5 335.76 350.171 348.09 335 348.09C319.829 348.09 307.5 335.76 307.5 320.59V302.256H362.5V320.59Z" fill="url(#paint3_linear_173_978)"/>
</g>
<path d="M301.438 365.455H306.352L309.733 373.693H309.903L313.284 365.455H318.199V380H314.335V371.591H314.222L310.983 379.886H308.653L305.415 371.534H305.301V380H301.438V365.455ZM325.383 380.199C324.199 380.199 323.186 379.964 322.343 379.496C321.5 379.022 320.854 378.364 320.404 377.521C319.954 376.674 319.729 375.691 319.729 374.574C319.729 373.456 319.954 372.476 320.404 371.634C320.854 370.786 321.5 370.128 322.343 369.659C323.186 369.186 324.199 368.949 325.383 368.949C326.567 368.949 327.58 369.186 328.423 369.659C329.265 370.128 329.912 370.786 330.362 371.634C330.811 372.476 331.036 373.456 331.036 374.574C331.036 375.691 330.811 376.674 330.362 377.521C329.912 378.364 329.265 379.022 328.423 379.496C327.58 379.964 326.567 380.199 325.383 380.199ZM325.411 377.301C325.743 377.301 326.029 377.19 326.271 376.967C326.512 376.745 326.699 376.428 326.832 376.016C326.964 375.604 327.031 375.114 327.031 374.545C327.031 373.973 326.964 373.482 326.832 373.075C326.699 372.663 326.512 372.346 326.271 372.124C326.029 371.901 325.743 371.79 325.411 371.79C325.061 371.79 324.76 371.901 324.509 372.124C324.258 372.346 324.067 372.663 323.934 373.075C323.801 373.482 323.735 373.973 323.735 374.545C323.735 375.114 323.801 375.604 323.934 376.016C324.067 376.428 324.258 376.745 324.509 376.967C324.76 377.19 325.061 377.301 325.411 377.301ZM339.701 375.227V369.091H343.621V380H339.9V377.926H339.786C339.549 378.622 339.135 379.167 338.543 379.56C337.951 379.948 337.248 380.142 336.434 380.142C335.672 380.142 335.004 379.967 334.431 379.616C333.863 379.266 333.42 378.783 333.103 378.168C332.79 377.552 332.632 376.847 332.627 376.051V369.091H336.548V375.227C336.552 375.767 336.69 376.191 336.96 376.499C337.234 376.806 337.618 376.96 338.11 376.96C338.437 376.96 338.719 376.892 338.955 376.754C339.197 376.612 339.381 376.413 339.509 376.158C339.642 375.897 339.706 375.587 339.701 375.227ZM355.587 372.642H351.979C351.96 372.42 351.882 372.228 351.745 372.067C351.607 371.906 351.43 371.783 351.212 371.697C350.999 371.607 350.762 371.562 350.502 371.562C350.166 371.562 349.877 371.624 349.635 371.747C349.394 371.87 349.275 372.045 349.28 372.273C349.275 372.434 349.344 372.583 349.486 372.72C349.633 372.857 349.915 372.964 350.331 373.04L352.547 373.438C353.665 373.641 354.496 373.984 355.04 374.467C355.589 374.946 355.866 375.587 355.871 376.392C355.866 377.169 355.634 377.843 355.175 378.416C354.721 378.984 354.098 379.425 353.307 379.737C352.521 380.045 351.624 380.199 350.615 380.199C348.949 380.199 347.644 379.858 346.702 379.176C345.765 378.494 345.241 377.595 345.132 376.477H349.025C349.077 376.823 349.247 377.09 349.536 377.28C349.829 377.464 350.199 377.557 350.644 377.557C351.004 377.557 351.3 377.495 351.532 377.372C351.768 377.249 351.889 377.074 351.894 376.847C351.889 376.638 351.785 376.473 351.581 376.349C351.382 376.226 351.07 376.127 350.644 376.051L348.712 375.71C347.599 375.516 346.766 375.147 346.212 374.602C345.658 374.058 345.383 373.357 345.388 372.5C345.383 371.742 345.582 371.101 345.985 370.575C346.392 370.045 346.972 369.643 347.725 369.368C348.482 369.089 349.38 368.949 350.417 368.949C351.993 368.949 353.236 369.276 354.145 369.929C355.059 370.582 355.54 371.487 355.587 372.642ZM362.6 380.199C361.436 380.199 360.432 379.976 359.589 379.531C358.751 379.081 358.105 378.437 357.65 377.599C357.2 376.757 356.975 375.748 356.975 374.574C356.975 373.447 357.203 372.462 357.657 371.619C358.112 370.777 358.753 370.121 359.582 369.652C360.411 369.183 361.388 368.949 362.515 368.949C363.339 368.949 364.085 369.077 364.752 369.332C365.42 369.588 365.991 369.96 366.464 370.447C366.938 370.93 367.302 371.518 367.558 372.209C367.814 372.9 367.941 373.679 367.941 374.545V375.455H358.197V373.295H364.333C364.329 372.983 364.248 372.708 364.092 372.472C363.94 372.23 363.734 372.043 363.474 371.911C363.218 371.773 362.927 371.705 362.6 371.705C362.283 371.705 361.992 371.773 361.727 371.911C361.462 372.043 361.249 372.228 361.088 372.464C360.931 372.701 360.849 372.978 360.839 373.295V375.625C360.839 375.975 360.913 376.288 361.059 376.562C361.206 376.837 361.417 377.053 361.691 377.209C361.966 377.365 362.297 377.443 362.686 377.443C362.956 377.443 363.202 377.405 363.424 377.33C363.652 377.254 363.846 377.145 364.007 377.003C364.168 376.856 364.286 376.681 364.362 376.477H367.941C367.818 377.235 367.527 377.893 367.068 378.452C366.609 379.006 366 379.437 365.243 379.744C364.49 380.047 363.609 380.199 362.6 380.199Z" fill="#2B3674"/>
<g filter="url(#filter5_d_173_978)">
<mask id="path-14-outside-1_173_978" maskUnits="userSpaceOnUse" x="189.804" y="137.804" width="135.174" height="142.129" fill="black">
<rect fill="white" x="189.804" y="137.804" width="135.174" height="142.129"/>
<path fill-rule="evenodd" clip-rule="evenodd" d="M237.564 207.508L237.075 198.116C236.74 191.703 231.274 186.278 224.865 185.987L226.358 186.055C224.768 185.983 223.267 187.226 223.012 188.832L219.904 208.39C219.411 211.49 219.823 216.515 220.841 219.508C220.841 219.508 227.238 236.942 225.007 240.806L222.183 245.698L242.187 257.248L253.011 250.048L252.189 263.022L257.19 265.91L260.014 261.018C262.245 257.154 276.817 249.34 276.817 249.34C279.572 247.776 283.136 244.277 284.734 241.51L296.482 221.161C298.993 216.604 297.303 210.76 292.617 208.055C290.273 206.701 287.321 207.431 286.019 209.685L285.078 211.314C287.679 206.809 285.99 200.965 281.304 198.26C278.96 196.907 276.007 197.636 274.706 199.89L273.765 201.52C276.366 197.015 274.677 191.171 269.991 188.466C267.647 187.112 264.694 187.842 263.393 190.096L262.452 191.725C262.87 191.001 263.126 190.381 263.241 189.84L274.079 168.078C275.545 165.135 274.445 161.556 271.683 159.962C268.901 158.356 265.378 159.332 263.77 162.117L252.123 182.291L237.564 207.508ZM275.573 222.728L280.574 225.615L268.927 245.789L263.926 242.901L275.573 222.728ZM265.571 216.953L270.572 219.841L258.925 240.014L253.924 237.127L265.571 216.953ZM255.569 211.179L260.57 214.066L248.923 234.239L243.922 231.352L255.569 211.179Z"/>
</mask>
<path fill-rule="evenodd" clip-rule="evenodd" d="M237.564 207.508L237.075 198.116C236.74 191.703 231.274 186.278 224.865 185.987L226.358 186.055C224.768 185.983 223.267 187.226 223.012 188.832L219.904 208.39C219.411 211.49 219.823 216.515 220.841 219.508C220.841 219.508 227.238 236.942 225.007 240.806L222.183 245.698L242.187 257.248L253.011 250.048L252.189 263.022L257.19 265.91L260.014 261.018C262.245 257.154 276.817 249.34 276.817 249.34C279.572 247.776 283.136 244.277 284.734 241.51L296.482 221.161C298.993 216.604 297.303 210.76 292.617 208.055C290.273 206.701 287.321 207.431 286.019 209.685L285.078 211.314C287.679 206.809 285.99 200.965 281.304 198.26C278.96 196.907 276.007 197.636 274.706 199.89L273.765 201.52C276.366 197.015 274.677 191.171 269.991 188.466C267.647 187.112 264.694 187.842 263.393 190.096L262.452 191.725C262.87 191.001 263.126 190.381 263.241 189.84L274.079 168.078C275.545 165.135 274.445 161.556 271.683 159.962C268.901 158.356 265.378 159.332 263.77 162.117L252.123 182.291L237.564 207.508ZM275.573 222.728L280.574 225.615L268.927 245.789L263.926 242.901L275.573 222.728ZM265.571 216.953L270.572 219.841L258.925 240.014L253.924 237.127L265.571 216.953ZM255.569 211.179L260.57 214.066L248.923 234.239L243.922 231.352L255.569 211.179Z" fill="white"/>
<path d="M237.564 207.508L231.572 207.82L232.627 228.059L242.76 210.508L237.564 207.508ZM237.075 198.116L243.066 197.803L237.075 198.116ZM223.012 188.832L217.086 187.89L223.012 188.832ZM219.904 208.39L225.829 209.331L225.83 209.331L219.904 208.39ZM220.841 219.508L215.161 221.44L215.184 221.507L215.208 221.574L220.841 219.508ZM222.183 245.698L216.987 242.698L213.987 247.894L219.183 250.894L222.183 245.698ZM242.187 257.248L239.187 262.444L242.41 264.305L245.509 262.244L242.187 257.248ZM253.011 250.048L258.999 250.428L259.765 238.351L249.688 245.052L253.011 250.048ZM252.189 263.022L246.201 262.643L245.965 266.357L249.189 268.218L252.189 263.022ZM257.19 265.91L254.19 271.106L259.386 274.106L262.386 268.91L257.19 265.91ZM276.817 249.34L279.653 254.628L279.716 254.593L279.779 254.558L276.817 249.34ZM284.734 241.51L289.93 244.51L284.734 241.51ZM296.482 221.161L301.678 224.161L301.708 224.109L301.737 224.056L296.482 221.161ZM263.241 189.84L257.87 187.165L257.53 187.847L257.372 188.593L263.241 189.84ZM274.079 168.078L268.709 165.403L274.079 168.078ZM263.77 162.117L258.574 159.117L263.77 162.117ZM280.574 225.615L285.77 228.615L288.77 223.419L283.574 220.419L280.574 225.615ZM268.927 245.789L265.927 250.985L271.123 253.985L274.123 248.789L268.927 245.789ZM263.926 242.901L258.73 239.901L255.73 245.097L260.926 248.097L263.926 242.901ZM270.572 219.841L275.768 222.841L278.768 217.644L273.572 214.644L270.572 219.841ZM258.925 240.014L255.925 245.21L261.121 248.21L264.121 243.014L258.925 240.014ZM253.924 237.127L248.728 234.127L245.728 239.323L250.924 242.323L253.924 237.127ZM260.57 214.066L265.766 217.066L268.766 211.87L263.57 208.87L260.57 214.066ZM248.923 234.239L245.923 239.435L251.119 242.435L254.119 237.239L248.923 234.239ZM243.922 231.352L238.726 228.352L235.726 233.548L240.922 236.548L243.922 231.352ZM243.556 207.195L243.066 197.803L231.083 198.428L231.572 207.82L243.556 207.195ZM243.066 197.803C242.572 188.306 234.63 180.424 225.137 179.993L224.593 191.981C227.919 192.132 230.909 195.1 231.083 198.428L243.066 197.803ZM224.593 191.981L226.087 192.049L226.63 180.061L225.137 179.993L224.593 191.981ZM226.63 180.061C221.898 179.846 217.806 183.36 217.086 187.89L228.938 189.774C228.816 190.536 228.429 191.089 228.015 191.432C227.603 191.774 226.944 192.087 226.087 192.049L226.63 180.061ZM217.086 187.89L213.978 207.448L225.83 209.331L228.938 189.774L217.086 187.89ZM213.978 207.448C213.335 211.498 213.824 217.51 215.161 221.44L226.521 217.575C225.822 215.52 225.488 211.482 225.829 209.331L213.978 207.448ZM220.841 219.508C215.208 221.574 215.208 221.574 215.208 221.573C215.208 221.573 215.208 221.573 215.208 221.573C215.208 221.573 215.208 221.573 215.208 221.573C215.208 221.574 215.209 221.576 215.21 221.579C215.212 221.584 215.215 221.594 215.22 221.608C215.23 221.635 215.246 221.678 215.267 221.736C215.309 221.853 215.372 222.029 215.452 222.257C215.613 222.714 215.843 223.378 216.114 224.189C216.657 225.819 217.35 228.007 217.972 230.287C218.603 232.602 219.114 234.844 219.348 236.629C219.466 237.527 219.491 238.144 219.475 238.509C219.452 239.006 219.376 238.559 219.811 237.806L230.203 243.806C231.196 242.088 231.408 240.251 231.462 239.055C231.523 237.727 231.414 236.348 231.246 235.067C230.909 232.497 230.238 229.656 229.549 227.129C228.851 224.567 228.085 222.155 227.498 220.395C227.203 219.511 226.951 218.783 226.771 218.271C226.681 218.015 226.608 217.813 226.558 217.672C226.532 217.602 226.512 217.547 226.498 217.508C226.491 217.488 226.486 217.473 226.482 217.462C226.48 217.456 226.478 217.452 226.477 217.448C226.476 217.446 226.475 217.445 226.475 217.444C226.475 217.443 226.474 217.442 226.474 217.442C226.474 217.441 226.474 217.441 220.841 219.508ZM219.811 237.806L216.987 242.698L227.379 248.698L230.203 243.806L219.811 237.806ZM219.183 250.894L239.187 262.444L245.187 252.051L225.183 240.502L219.183 250.894ZM245.509 262.244L256.334 255.044L249.688 245.052L238.864 252.252L245.509 262.244ZM247.023 249.669L246.201 262.643L258.177 263.402L258.999 250.428L247.023 249.669ZM249.189 268.218L254.19 271.106L260.19 260.713L255.189 257.826L249.189 268.218ZM262.386 268.91L265.21 264.018L254.818 258.018L251.994 262.91L262.386 268.91ZM265.21 264.018C265.091 264.223 265.48 263.655 267.21 262.341C268.677 261.227 270.53 260 272.418 258.826C274.289 257.664 276.106 256.61 277.461 255.843C278.136 255.461 278.691 255.153 279.075 254.942C279.266 254.837 279.415 254.756 279.513 254.703C279.563 254.676 279.599 254.656 279.623 254.644C279.635 254.637 279.643 254.633 279.648 254.63C279.651 254.629 279.652 254.628 279.653 254.627C279.653 254.627 279.654 254.627 279.653 254.627C279.653 254.627 279.653 254.627 279.653 254.627C279.653 254.627 279.653 254.628 276.817 249.34C273.982 244.052 273.981 244.052 273.981 244.052C273.981 244.053 273.98 244.053 273.98 244.053C273.979 244.054 273.978 244.054 273.976 244.055C273.973 244.056 273.97 244.058 273.965 244.061C273.956 244.066 273.944 244.072 273.928 244.081C273.896 244.098 273.851 244.123 273.793 244.154C273.677 244.217 273.51 244.308 273.299 244.424C272.876 244.656 272.276 244.989 271.55 245.399C270.103 246.218 268.137 247.359 266.086 248.633C264.053 249.896 261.844 251.347 259.952 252.785C258.321 254.023 256.052 255.88 254.818 258.018L265.21 264.018ZM279.779 254.558C281.757 253.435 283.753 251.795 285.424 250.147C287.092 248.5 288.774 246.511 289.93 244.51L279.537 238.51C279.095 239.275 278.197 240.419 276.995 241.605C275.795 242.789 274.632 243.681 273.855 244.122L279.779 254.558ZM289.93 244.51L301.678 224.161L291.286 218.161L279.537 238.51L289.93 244.51ZM301.737 224.056C305.895 216.508 303.003 207.122 295.617 202.859L289.617 213.251C291.604 214.398 292.09 216.699 291.227 218.266L301.737 224.056ZM295.617 202.859C290.598 199.96 283.891 201.37 280.823 206.685L291.215 212.685C290.75 213.491 289.949 213.442 289.617 213.251L295.617 202.859ZM280.823 206.685L279.882 208.314L290.274 214.314L291.215 212.685L280.823 206.685ZM290.274 214.314C294.642 206.749 291.666 197.314 284.304 193.064L278.304 203.456C280.314 204.617 280.716 206.869 279.882 208.314L290.274 214.314ZM284.304 193.064C279.285 190.166 272.578 191.576 269.51 196.89L279.902 202.89C279.437 203.696 278.636 203.648 278.304 203.456L284.304 193.064ZM269.51 196.89L268.569 198.52L278.961 204.52L279.902 202.89L269.51 196.89ZM278.961 204.52C283.329 196.954 280.352 187.52 272.991 183.27L266.991 193.662C269.001 194.822 269.403 197.075 268.569 198.52L278.961 204.52ZM272.991 183.27C267.972 180.371 261.265 181.781 258.197 187.096L268.589 193.096C268.124 193.902 267.323 193.853 266.991 193.662L272.991 183.27ZM258.197 187.096L257.256 188.725L267.648 194.725L268.589 193.096L258.197 187.096ZM267.648 194.725C268.256 193.673 268.82 192.449 269.11 191.087L257.372 188.593C257.404 188.44 257.436 188.373 257.422 188.406C257.408 188.439 257.362 188.542 257.256 188.725L267.648 194.725ZM268.612 192.515L279.45 170.753L268.709 165.403L257.87 187.165L268.612 192.515ZM279.45 170.753C282.319 164.992 280.209 157.957 274.683 154.766L268.683 165.158C268.661 165.145 268.694 165.152 268.718 165.233C268.729 165.27 268.731 165.304 268.729 165.331C268.728 165.353 268.722 165.375 268.709 165.403L279.45 170.753ZM274.683 154.766C268.978 151.472 261.808 153.516 258.574 159.117L268.967 165.117C268.967 165.116 268.957 165.131 268.935 165.148C268.916 165.163 268.895 165.173 268.871 165.18C268.847 165.186 268.814 165.19 268.775 165.186C268.731 165.18 268.697 165.166 268.683 165.158L274.683 154.766ZM258.574 159.117L246.927 179.291L257.319 185.291L268.967 165.117L258.574 159.117ZM246.927 179.291L232.368 204.508L242.76 210.508L257.319 185.291L246.927 179.291ZM272.573 227.924L277.574 230.811L283.574 220.419L278.573 217.532L272.573 227.924ZM275.378 222.615L263.731 242.789L274.123 248.789L285.77 228.615L275.378 222.615ZM271.927 240.592L266.926 237.705L260.926 248.097L265.927 250.985L271.927 240.592ZM269.122 245.901L280.769 225.728L270.377 219.728L258.73 239.901L269.122 245.901ZM262.571 222.149L267.572 225.037L273.572 214.644L268.571 211.757L262.571 222.149ZM265.376 216.841L253.729 237.014L264.121 243.014L275.768 222.841L265.376 216.841ZM261.925 234.818L256.924 231.93L250.924 242.323L255.925 245.21L261.925 234.818ZM259.12 240.127L270.767 219.953L260.375 213.953L248.728 234.127L259.12 240.127ZM252.569 216.375L257.57 219.262L263.57 208.87L258.569 205.982L252.569 216.375ZM255.374 211.066L243.727 231.239L254.119 237.239L265.766 217.066L255.374 211.066ZM251.923 229.043L246.922 226.156L240.922 236.548L245.923 239.435L251.923 229.043ZM249.118 234.352L260.765 214.179L250.373 208.179L238.726 228.352L249.118 234.352Z" fill="url(#paint4_linear_173_978)" mask="url(#path-14-outside-1_173_978)"/>
</g>
<defs>
<filter id="filter0_i_173_978" x="90" y="70" width="110" height="114" filterUnits="userSpaceOnUse" color-interpolation-filters="sRGB">
<feFlood flood-opacity="0" result="BackgroundImageFix"/>
<feBlend mode="normal" in="SourceGraphic" in2="BackgroundImageFix" result="shape"/>
<feColorMatrix in="SourceAlpha" type="matrix" values="0 0 0 0 0 0 0 0 0 0 0 0 0 0 0 0 0 0 127 0" result="hardAlpha"/>
<feOffset dy="4"/>
<feGaussianBlur stdDeviation="2"/>
<feComposite in2="hardAlpha" operator="arithmetic" k2="-1" k3="1"/>
<feColorMatrix type="matrix" values="0 0 0 0 0 0 0 0 0 0 0 0 0 0 0 0 0 0 0.25 0"/>
<feBlend mode="normal" in2="shape" result="effect1_innerShadow_173_978"/>
</filter>
<filter id="filter1_d_173_978" x="230" y="40" width="210" height="202" filterUnits="userSpaceOnUse" color-interpolation-filters="sRGB">
<feFlood flood-opacity="0" result="BackgroundImageFix"/>
<feColorMatrix in="SourceAlpha" type="matrix" values="0 0 0 0 0 0 0 0 0 0 0 0 0 0 0 0 0 0 127 0" result="hardAlpha"/>
<feOffset/>
<feGaussianBlur stdDeviation="10"/>
<feComposite in2="hardAlpha" operator="out"/>
<feColorMatrix type="matrix" values="0 0 0 0 0.447059 0 0 0 0 0.235294 0 0 0 0 0.862745 0 0 0 1 0"/>
<feBlend mode="normal" in2="BackgroundImageFix" result="effect1_dropShadow_173_978"/>
<feBlend mode="normal" in="SourceGraphic" in2="effect1_dropShadow_173_978" result="shape"/>
</filter>
<filter id="filter2_i_173_978" x="280" y="70" width="113" height="114" filterUnits="userSpaceOnUse" color-interpolation-filters="sRGB">
<feFlood flood-opacity="0" result="BackgroundImageFix"/>
<feBlend mode="normal" in="SourceGraphic" in2="BackgroundImageFix" result="shape"/>
<feColorMatrix in="SourceAlpha" type="matrix" values="0 0 0 0 0 0 0 0 0 0 0 0 0 0 0 0 0 0 127 0" result="hardAlpha"/>
<feOffset dx="3" dy="4"/>
<feGaussianBlur stdDeviation="2"/>
<feComposite in2="hardAlpha" operator="arithmetic" k2="-1" k3="1"/>
<feColorMatrix type="matrix" values="0 0 0 0 0 0 0 0 0 0 0 0 0 0 0 0 0 0 0.25 0"/>
<feBlend mode="normal" in2="shape" result="effect1_innerShadow_173_978"/>
</filter>
<filter id="filter3_i_173_978" x="90" y="252" width="113" height="114" filterUnits="userSpaceOnUse" color-interpolation-filters="sRGB">
<feFlood flood-opacity="0" result="BackgroundImageFix"/>
<feBlend mode="normal" in="SourceGraphic" in2="BackgroundImageFix" result="shape"/>
<feColorMatrix in="SourceAlpha" type="matrix" values="0 0 0 0 0 0 0 0 0 0 0 0 0 0 0 0 0 0 127 0" result="hardAlpha"/>
<feOffset dx="3" dy="4"/>
<feGaussianBlur stdDeviation="2"/>
<feComposite in2="hardAlpha" operator="arithmetic" k2="-1" k3="1"/>
<feColorMatrix type="matrix" values="0 0 0 0 0 0 0 0 0 0 0 0 0 0 0 0 0 0 0.25 0"/>
<feBlend mode="normal" in2="shape" result="effect1_innerShadow_173_978"/>
</filter>
<filter id="filter4_d_173_978" x="279" y="252" width="118" height="118" filterUnits="userSpaceOnUse" color-interpolation-filters="sRGB">
<feFlood flood-opacity="0" result="BackgroundImageFix"/>
<feColorMatrix in="SourceAlpha" type="matrix" values="0 0 0 0 0 0 0 0 0 0 0 0 0 0 0 0 0 0 127 0" result="hardAlpha"/>
<feOffset dx="3" dy="4"/>
<feGaussianBlur stdDeviation="2"/>
<feComposite in2="hardAlpha" operator="out"/>
<feColorMatrix type="matrix" values="0 0 0 0 0 0 0 0 0 0 0 0 0 0 0 0 0 0 0.25 0"/>
<feBlend mode="normal" in2="BackgroundImageFix" result="effect1_dropShadow_173_978"/>
<feBlend mode="normal" in="SourceGraphic" in2="effect1_dropShadow_173_978" result="shape"/>
</filter>
<filter id="filter5_d_173_978" x="210.697" y="151.185" width="95.9507" height="126.921" filterUnits="userSpaceOnUse" color-interpolation-filters="sRGB">
<feFlood flood-opacity="0" result="BackgroundImageFix"/>
<feColorMatrix in="SourceAlpha" type="matrix" values="0 0 0 0 0 0 0 0 0 0 0 0 0 0 0 0 0 0 127 0" result="hardAlpha"/>
<feOffset dy="1"/>
<feGaussianBlur stdDeviation="1.5"/>
<feColorMatrix type="matrix" values="0 0 0 0 0 0 0 0 0 0 0 0 0 0 0 0 0 0 0.2 0"/>
<feBlend mode="normal" in2="BackgroundImageFix" result="effect1_dropShadow_173_978"/>
<feBlend mode="normal" in="SourceGraphic" in2="effect1_dropShadow_173_978" result="shape"/>
</filter>
<linearGradient id="paint0_linear_173_978" x1="160" y1="112.5" x2="97" y2="164" gradientUnits="userSpaceOnUse">
<stop stop-color="#723CDC"/>
<stop offset="1" stop-color="#1F0650"/>
</linearGradient>
<linearGradient id="paint1_linear_173_978" x1="348.75" y1="111.765" x2="284.559" y2="157.193" gradientUnits="userSpaceOnUse">
<stop stop-color="#723CDC"/>
<stop offset="1" stop-color="#1F0650"/>
</linearGradient>
<linearGradient id="paint2_linear_173_978" x1="156.25" y1="293.765" x2="97.2179" y2="327.946" gradientUnits="userSpaceOnUse">
<stop stop-color="#723CDC"/>
<stop offset="1" stop-color="#1F0650"/>
</linearGradient>
<linearGradient id="paint3_linear_173_978" x1="345" y1="290.875" x2="285.545" y2="315.992" gradientUnits="userSpaceOnUse">
<stop stop-color="#723CDC"/>
<stop offset="1" stop-color="#1F0650"/>
</linearGradient>
<linearGradient id="paint4_linear_173_978" x1="274.78" y1="200.568" x2="205.804" y2="194.625" gradientUnits="userSpaceOnUse">
<stop stop-color="#723CDC"/>
<stop offset="1" stop-color="#1F0650"/>
</linearGradient>
</defs>
</svg>
